<?xml version="1.0" standalone="no"?>
<!DOCTYPE svg PUBLIC "-//W3C//DTD SVG 20010904//EN"
 "http://www.w3.org/TR/2001/REC-SVG-20010904/DTD/svg10.dtd">
<svg version="1.0" xmlns="http://www.w3.org/2000/svg"
 width="1280.000000pt" height="1056.000000pt" viewBox="0 0 1280.000000 1056.000000"
 preserveAspectRatio="xMidYMid meet">
<metadata>
Created by potrace 1.15, written by Peter Selinger 2001-2017
</metadata>
<g transform="translate(0.000000,1056.000000) scale(0.100000,-0.100000)"
fill="#9c27b0" stroke="none">
<path d="M6310 9673 c-683 -40 -1382 -259 -1984 -623 -322 -194 -559 -381
-865 -683 -754 -744 -1342 -1716 -1801 -2972 -281 -769 -484 -1595 -564 -2291
-13 -115 -31 -229 -40 -253 -57 -157 -65 -335 -21 -486 108 -372 471 -712
1070 -1004 505 -246 1173 -451 1900 -582 33 -6 80 -14 105 -19 189 -36 617
-93 895 -119 539 -51 668 -56 1345 -56 677 0 806 5 1345 56 573 53 1151 152
1670 284 397 101 813 242 1085 368 41 19 101 46 134 61 90 43 271 143 376 209
307 195 518 404 635 628 45 87 95 239 95 289 0 15 9 63 20 106 27 108 26 232
-6 444 -81 553 -225 1139 -424 1730 -460 1364 -1019 2448 -1694 3285 -270 335
-645 704 -941 925 -548 411 -1144 648 -1760 700 -110 9 -441 11 -575 3z"/>

<image xlink:href="/img/pngwing.com.png">
</g>
</svg>